<?xml version="1.0" encoding="UTF-8" standalone="no"?>
<svg width="679px" height="111px" viewBox="0 0 679 111" version="1.1" xmlns="http://www.w3.org/2000/svg" xmlns:xlink="http://www.w3.org/1999/xlink" xmlns:sketch="http://www.bohemiancoding.com/sketch/ns">
    <!-- Generator: Sketch 3.3.1 (12005) - http://www.bohemiancoding.com/sketch -->
    <title>Imported Layers</title>
    <desc>Created with Sketch.</desc>
    <defs></defs>
    <g id="Page-1" stroke="none" stroke-width="1" fill="none" fill-rule="evenodd" sketch:type="MSPage">
        <g id="Imported-Layers" sketch:type="MSLayerGroup">
            <path d="M66.5,69.4 C66.5,101.4 56.3,110.5 29,110.5 C21,110.5 0.4,108.5 0.4,108.5 L0.4,0.2 L17.9,0.2 L17.9,34.3 C17.9,34.3 28.4,30.1 36.5,30.1 C57.4,30.2 66.5,40.7 66.5,69.4 L66.5,69.4 Z M48.7,69.4 C48.7,52.5 44.1,46.5 34.2,46.5 C27.4,46.5 17.9,48.7 17.9,48.7 L17.9,93.9 C17.9,93.9 25.9,94.7 28.8,94.7 C45.3,94.6 48.7,87.6 48.7,69.4 L48.7,69.4 Z" id="Fill-1" fill="#FFFFFF" sketch:type="MSShapeGroup"></path>
            <path d="M144.8,32 L144.8,108.8 L127.3,108.8 L127.3,105 C127.3,105 115.3,110.5 107,110.5 C84.8,110.5 80.4,99.1 80.4,72.2 L80.4,32 L97.9,32 L97.9,72 C97.9,88.3 98.8,94.6 110.5,94.6 C117.3,94.6 127.3,91.1 127.3,91.1 L127.3,32 L144.8,32" id="Fill-2" fill="#FFFFFF" sketch:type="MSShapeGroup"></path>
            <path d="M159.7,31.9 L216.8,31.9 L216.8,47.7 L181,93 L216.8,93 L216.8,108.8 L159.7,108.8 L159.7,93 L195.7,47.8 L159.7,47.8 L159.7,31.9" id="Fill-3" fill="#FFFFFF" sketch:type="MSShapeGroup"></path>
            <path d="M229.4,31.9 L286.5,31.9 L286.5,47.7 L250.7,92.9 L286.5,92.9 L286.5,108.7 L229.4,108.7 L229.4,92.9 L265.4,47.7 L229.4,47.7 L229.4,31.9" id="Fill-4" fill="#FFFFFF" sketch:type="MSShapeGroup"></path>
            <path d="M360.6,87.9 C360.8,93.3 362.4,94.8 366.9,95.6 L366.3,110.5 C354.3,110.5 350.3,108.6 345.7,105.1 C345.7,105.1 332.5,110.5 320.6,110.5 C306,110.5 298.3,101.1 298.3,85.9 C298.3,69.4 307.4,63.7 324,62.5 L343.1,61 L343.1,56.4 C343.1,50.4 339.4,47.2 333.6,47.2 C322.2,47.2 303.9,48.6 303.9,48.6 L303.3,33.7 C303.3,33.7 323.1,30.3 334.5,30.3 C351.4,30.3 360.7,37.4 360.7,56.3 L360.7,87.9 L360.6,87.9 L360.6,87.9 Z M326.2,75.6 C319.6,76.2 316,79.1 316,85.4 C316,91.9 318.8,95.4 323.8,95.4 C332,95.4 343,92.3 343,92.3 L343,74.7 L326.2,75.6 L326.2,75.6 Z" id="Fill-5" fill="#FFFFFF" sketch:type="MSShapeGroup"></path>
            <path d="M380.2,108.8 L380.2,32 L397.7,32 L397.7,35.9 C397.7,35.9 409.9,30.2 418.3,30.2 C439.7,30.2 445.1,42.8 445.1,68.7 L445.1,108.8 L427.6,108.8 L427.6,68.8 C427.6,54.2 425.8,46.6 415,46.6 C408.2,46.6 397.8,50.1 397.8,50.1 L397.8,108.7 L380.2,108.7 L380.2,108.8" id="Fill-6" fill="#FFFFFF" sketch:type="MSShapeGroup"></path>
            <path d="M551.4,32 L566,94.1 L570.6,94.1 L585.5,32 L603.3,32 L583.6,108.8 L552.5,108.8 L533,32 L551.4,32" id="Fill-7" fill="#FFFFFF" sketch:type="MSShapeGroup"></path>
            <path d="M672.1,87.9 C672.2,93.3 673.9,94.8 678.4,95.6 L677.8,110.5 C665.8,110.5 661.8,108.6 657.2,105.1 C657.2,105.1 644,110.5 632.1,110.5 C617.5,110.5 609.8,101.1 609.8,85.9 C609.8,69.4 618.9,63.7 635.5,62.5 L654.6,61 L654.6,56.4 C654.6,50.4 650.9,47.2 645.1,47.2 C633.7,47.2 615.4,48.6 615.4,48.6 L614.8,33.7 C614.8,33.7 634.6,30.3 646,30.3 C662.9,30.3 672.1,37.4 672.1,56.3 L672.1,87.9 L672.1,87.9 Z M637.6,75.6 C631,76.2 627.4,79.1 627.4,85.4 C627.4,91.9 630.2,95.4 635.2,95.4 C643.4,95.4 654.4,92.3 654.4,92.3 L654.4,74.7 L637.6,75.6 L637.6,75.6 Z" id="Fill-8" fill="#FFFFFF" sketch:type="MSShapeGroup"></path>
            <path d="M516.3,96.1 C516.3,99.1 515.2,101.5 513.8,101.5 L468.2,101.5 C466.8,101.5 465.7,99.1 465.7,96.1 L465.7,44.5 C465.7,41.5 466.8,39.1 468.2,39.1 L513.8,39.1 C515.2,39.1 516.3,41.5 516.3,44.5 L516.3,96.1 L516.3,96.1 Z" id="Stroke-9" stroke="#FFFFFF" stroke-width="16" sketch:type="MSShapeGroup"></path>
            <path d="M486.8,61.8 L497.4,69.5 L486.8,77.5 L486.8,61.8" id="Fill-10" fill="#FFFFFF" sketch:type="MSShapeGroup"></path>
        </g>
    </g>
</svg>