<?xml version="1.0" encoding="UTF-8" standalone="no"?>
<svg width="17px" height="21px" viewBox="0 0 17 21" version="1.1" xmlns="http://www.w3.org/2000/svg" xmlns:xlink="http://www.w3.org/1999/xlink" xmlns:sketch="http://www.bohemiancoding.com/sketch/ns">
    <!-- Generator: Sketch 3.3.1 (12005) - http://www.bohemiancoding.com/sketch -->
    <title>Shape</title>
    <desc>Created with Sketch.</desc>
    <defs></defs>
    <g id="Page-1" stroke="none" stroke-width="1" fill="none" fill-rule="evenodd" sketch:type="MSPage">
        <g id="Imported-Layers" sketch:type="MSLayerGroup" transform="translate(-114.500000, -7.000000)" fill="#FFFFFF">
            <path d="M127.259647,24.1425037 C127.259647,24.1957045 127.255132,24.2428848 127.248221,24.2778331 C127.24673,24.2853746 127.249326,24.277152 127.26357,24.2466791 C127.311719,24.1436728 127.393287,24.0258012 127.533962,23.8985723 C127.804533,23.6538615 128.185406,23.4872901 128.631414,23.4872901 L117.22514,23.4872901 C117.670514,23.4872901 118.051312,23.6536213 118.321931,23.898261 C118.462936,24.0257299 118.54471,24.143925 118.592969,24.247252 C118.607253,24.2778356 118.609858,24.2860938 118.608363,24.2785217 C118.601434,24.2434167 118.596907,24.196001 118.596907,24.1425037 L118.596907,11.229514 C118.596907,11.1769658 118.601358,11.1304947 118.608131,11.096284 C118.609453,11.0896109 118.606577,11.0986999 118.591924,11.1299742 C118.543259,11.2338351 118.460975,11.3523822 118.319514,11.4798464 C118.049052,11.7235463 117.66905,11.8889838 117.22514,11.8889838 L128.631414,11.8889838 C128.186871,11.8889838 127.806793,11.7233066 127.536379,11.4795357 C127.395248,11.352311 127.313171,11.2340876 127.264617,11.1305479 C127.250004,11.0993848 127.247136,11.0903318 127.248454,11.0969745 C127.255208,11.1310279 127.259647,11.1772629 127.259647,11.229514 L127.259647,24.1425037 L127.259647,24.1425037 Z M131.265538,24.1425037 L131.265538,11.229514 C131.265538,10.5891107 131.141165,9.96210403 130.891524,9.42975034 C130.479596,8.55132518 129.738327,7.88309278 128.631414,7.88309278 L117.22514,7.88309278 C116.118085,7.88309278 115.37624,8.5515328 114.964479,9.43032406 C114.715104,9.96254816 114.591016,10.5892748 114.591016,11.229514 L114.591016,24.1425037 C114.591016,24.78303 114.714765,25.41001 114.963434,25.9424313 C115.374704,26.8229994 116.116055,27.4931811 117.22514,27.4931811 L128.631414,27.4931811 C129.740357,27.4931811 130.481132,26.8232087 130.892571,25.9430042 C131.141505,25.4104525 131.265538,24.7831927 131.265538,24.1425037 L131.265538,24.1425037 Z" id="Shape" sketch:type="MSShapeGroup"></path>
        </g>
    </g>
</svg>