<?xml version="1.0" encoding="UTF-8" standalone="no"?>
<svg width="246px" height="37px" viewBox="0 0 246 37" version="1.1" xmlns="http://www.w3.org/2000/svg" xmlns:xlink="http://www.w3.org/1999/xlink" xmlns:sketch="http://www.bohemiancoding.com/sketch/ns">
    <!-- Generator: Sketch 3.3.1 (12005) - http://www.bohemiancoding.com/sketch -->
    <title>buzzalinkbar_logo</title>
    <desc>Created with Sketch.</desc>
    <defs>
        <path d="M16.9159979,17.7371851 C16.9159979,25.8770631 14.3336339,28.1867156 7.36855222,28.1867156 C5.33364633,28.1867156 0.0898014478,27.6774168 0.0898014478,27.6774168 L0.0898014478,0.127706308 L4.55061841,0.127706308 L4.55061841,8.8150424 C4.55061841,8.8150424 7.21235367,7.75853981 9.28541882,7.75853981 C14.607363,7.75853981 16.9159979,10.4190031 16.9159979,17.7371851 L16.9159979,17.7371851 Z M12.3768273,17.7371851 C12.3768273,13.4323123 11.2040662,11.9069597 8.69878387,11.9069597 C6.97754705,11.9069597 4.55061841,12.453909 4.55061841,12.453909 L4.55061841,23.9601965 C4.55061841,23.9601965 6.5857787,24.1545543 7.32835781,24.1545543 C11.5167177,24.1545543 12.3768273,22.3564902 12.3768273,17.7371851 L12.3768273,17.7371851 Z" id="path-1"></path>
        <path id="path-3" d="M16.4970093,0.0870031024 L16.4970093,19.6148749 L12.0349204,19.6148749 L12.0349204,18.6364716 C12.0349204,18.6364716 8.98243433,20.0460745 6.87044674,20.0460745 C1.23457911,20.0460745 0.0997228542,17.1487694 0.0997228542,10.3019814 L0.0997228542,0.0870031024 L4.56053981,0.0870031024 L4.56053981,10.2620414 C4.56053981,14.4099524 4.79534643,16.0139131 7.77049638,16.0139131 C9.4917332,16.0139131 12.0349204,15.1138635 12.0349204,15.1138635 L12.0349204,0.0870031024 L16.4970093,0.0870031024 L16.4970093,0.0870031024 Z"></path>
        <path id="path-5" d="M0.185708376,0.0488438469 L14.7030155,0.0488438469 L14.7030155,4.07871562 L5.58473423,15.5829679 L14.7030155,15.5829679 L14.7030155,19.6148749 L0.185708376,19.6148749 L0.185708376,15.5829679 L9.34189452,4.07871562 L0.185708376,4.07871562 L0.185708376,0.0488438469 L0.185708376,0.0488438469 Z"></path>
        <path id="path-7" d="M0.109644261,0.0488438469 L14.6272058,0.0488438469 L14.6272058,4.07871562 L5.50994209,15.5829679 L14.6272058,15.5829679 L14.6272058,19.6148749 L0.109644261,19.6148749 L0.109644261,15.5829679 L9.2660848,4.07871562 L0.109644261,4.07871562 L0.109644261,0.0488438469 L0.109644261,0.0488438469 Z"></path>
        <path d="M15.9342875,14.8007032 C15.9732099,16.1698573 16.4031375,16.5611169 17.5379938,16.7572554 L17.3815408,20.5548645 C14.3300724,20.5548645 13.3114747,20.0834705 12.1366784,19.1834209 C12.1366784,19.1834209 8.77255843,20.5548645 5.75924922,20.5548645 C2.04202896,20.5548645 0.0852223371,18.1668583 0.0852223371,14.2931851 C0.0852223371,10.105334 2.39385729,8.65757187 6.62012203,8.34492037 L11.4721986,7.9539152 L11.4721986,6.77886453 C11.4721986,5.2532575 10.5327177,4.43130714 9.04730507,4.43130714 C6.15101758,4.43130714 1.49457084,4.78440745 1.49457084,4.78440745 L1.33837229,0.988833506 C1.33837229,0.988833506 6.38455222,0.126688728 9.28058532,0.126688728 C13.5862213,0.126688728 15.9342875,1.9270424 15.9342875,6.74095967 L15.9342875,14.8007032 L15.9342875,14.8007032 Z M7.16859772,11.6708811 C5.48552017,11.827334 4.58521613,12.5711851 4.58521613,14.1751458 C4.58521613,15.8193009 5.28989038,16.719605 6.58119959,16.719605 C8.65528232,16.719605 11.4721986,15.9355595 11.4721986,15.9355595 L11.4721986,11.4363289 L7.16859772,11.6708811 L7.16859772,11.6708811 Z" id="path-9"></path>
        <path id="path-11" d="M0.0407032058,20.1236649 L0.0407032058,0.595793175 L4.50152017,0.595793175 L4.50152017,1.57623164 C4.50152017,1.57623164 7.59343744,0.126688728 9.74460186,0.126688728 C15.1848397,0.126688728 16.5542482,3.3363909 16.5542482,9.91072182 L16.5542482,20.1236649 L12.0931768,20.1236649 L12.0931768,9.94862668 C12.0931768,6.23166081 11.6233092,4.31275905 8.88449224,4.31275905 C7.16325543,4.31275905 4.50152017,5.21306308 4.50152017,5.21306308 L4.50152017,20.1236649 L0.0407032058,20.1236649 L0.0407032058,20.1236649 Z"></path>
        <path id="path-13" d="M4.69104447,0.0870031024 L8.40928232,15.8956194 L9.58204343,15.8956194 L13.3796525,0.0870031024 L17.9175512,0.0870031024 L12.9092761,19.6148749 L5.00395036,19.6148749 L0.03485212,0.0870031024 L4.69104447,0.0870031024 L4.69104447,0.0870031024 Z"></path>
        <path d="M16.0457125,14.8007032 C16.0838718,16.1698573 16.5160889,16.5611169 17.6496732,16.7572554 L17.4934747,20.5548645 C14.4409886,20.5548645 13.4244261,20.0834705 12.2493754,19.1834209 C12.2493754,19.1834209 8.88423785,20.5548645 5.87194623,20.5548645 C2.15370838,20.5548645 0.196901758,18.1668583 0.196901758,14.2931851 C0.196901758,10.105334 2.50579111,8.65757187 6.73205584,8.34492037 L11.583878,7.9539152 L11.583878,6.77886453 C11.583878,5.2532575 10.6456691,4.43130714 9.15898449,4.43130714 C6.26167942,4.43130714 1.60548707,4.78440745 1.60548707,4.78440745 L1.44903413,0.988833506 C1.44903413,0.988833506 6.49750362,0.126688728 9.39353671,0.126688728 C13.6971375,0.126688728 16.0457125,1.9270424 16.0457125,6.74095967 L16.0457125,14.8007032 L16.0457125,14.8007032 Z M7.28027715,11.6708811 C5.59719959,11.827334 4.69689555,12.5711851 4.69689555,14.1751458 C4.69689555,15.8193009 5.4015698,16.719605 6.69287901,16.719605 C8.76696174,16.719605 11.583878,15.9355595 11.583878,15.9355595 L11.583878,11.4363289 L7.28027715,11.6708811 L7.28027715,11.6708811 Z" id="path-15"></path>
        <path id="path-17" d="M2.90468252,1.98529886 L0.207331954,4.01995036 L0.207331954,0.03485212 L2.90468252,1.98529886 L2.90468252,1.98529886 Z"></path>
        <path d="M52.2384943,12.5007177 C50.4780807,15.5979772 48.5777497,17.4408149 46.3146515,18.7540021 C45.8669162,19.0058532 45.6430486,18.809969 45.8389328,18.3342503 L50.5401531,6.72111686 C50.7920041,6.07749741 50.4841861,5.79766287 49.8685502,6.07749741 L47.7977746,7.0009514 C47.0702048,7.33675284 46.8463371,7.28078594 46.3986019,6.60918304 C45.8948997,5.82564633 44.9434623,5.21001034 43.7401737,5.21001034 C40.5434457,5.21001034 38.3080765,9.15669493 37.1765274,12.6945667 C36.0915326,14.4356463 34.9088501,15.3797063 33.7780641,15.6758221 C33.2463785,15.7877559 32.966544,15.479938 33.1904116,14.9762358 C34.0578987,13.0733609 34.5056339,11.0305688 34.5056339,9.57542916 C34.5056339,6.72111686 32.8266267,5.21001034 30.3081158,5.21001034 C26.3024116,5.21001034 23.7281882,9.15084385 22.6658345,12.6823557 C20.76703,15.9134271 18.7244922,18.3062668 17.4077435,18.3062668 C16.820091,18.3062668 16.3163888,17.8025646 17.5756443,14.7243847 L23.0324178,1.18039297 C23.3122523,0.42483971 23.0324178,0.0330713547 22.2488811,0.0330713547 L21.2694602,0.0330713547 C20.3739897,0.0330713547 19.9262544,0.340889349 19.5904529,1.18039297 L14.9459628,12.6762503 C14.1235036,14.0685543 13.0761593,15.448393 11.3633175,15.9836401 C10.8596153,16.1515408 10.6357477,15.8717063 10.8875988,15.3959876 C12.3987053,12.5136918 12.874424,9.71534643 12.874424,8.4001241 C12.874424,6.46926577 11.8390362,5.21001034 9.93616132,5.21001034 C8.84480662,5.21001034 7.92135264,5.74169597 7.30571665,6.18943123 C6.9699152,6.44128232 6.80201448,6.3293485 6.9699152,5.93758014 L8.87279007,1.18039297 C9.15262461,0.42483971 8.87279007,0.0330713547 8.08925336,0.0330713547 L7.10983247,0.0330713547 C6.21436194,0.0330713547 5.73864323,0.340889349 5.43082523,1.18039297 L1.51314168,10.8346846 C-1.06133609,17.2428956 0.225902792,20.4609928 4.05963599,20.4609928 C5.8785605,20.4609928 7.36168356,19.733423 8.56497208,18.6140848 C9.12464116,18.0823992 9.4044757,17.9424819 10.1880124,17.8585315 C11.6276339,17.7219214 12.7479897,17.2828356 13.6638118,16.6384529 C13.2295595,19.4238242 14.533334,20.4609928 16.3723557,20.4609928 C18.4576319,20.4609928 20.3849286,18.8231975 22.1232099,16.4840352 C22.2928914,19.0562234 23.9500207,20.4609928 26.3344654,20.4609928 C28.2093568,20.4609928 29.8044137,19.5655222 31.0636691,18.2502999 C31.5673713,17.6906308 31.7912389,17.6066805 32.5467921,17.6346639 C33.9518159,17.6667177 35.2566081,17.1154436 36.3884116,16.1685853 C36.3459276,16.5290631 36.3245584,16.8534168 36.3245584,17.1309617 C36.3245584,18.9498862 37.2759959,20.4609928 39.0949204,20.4609928 C40.2142585,20.4609928 41.1097291,19.8173733 41.6693981,19.2577042 C41.9212492,19.0058532 42.0611665,19.0898035 41.9212492,19.425605 L41.8093154,19.7614064 C41.5854478,20.3210755 41.1936794,20.7408273 40.6619938,20.9926784 C38.5632347,21.9161324 35.2611872,22.9235367 35.1212699,25.6938987 C35.065303,27.2609721 36.1846412,28.5202275 38.1994498,28.5202275 C41.473514,28.5202275 43.0965543,25.1901965 44.187909,22.3918511 C44.4397601,21.7482316 44.7475781,21.3844467 45.3911975,21.0766287 C47.9878077,19.7924426 50.9464219,17.9788604 53.5445584,13.4679276 C53.5506639,13.4580062 53.556515,13.4478304 53.5623661,13.4371458 C53.5666908,13.4297684 53.5707611,13.4226453 53.574577,13.4152678 C54.0757353,12.4956298 54.6862834,11.3574664 55.2693568,10.2190486 C55.4932244,9.82728025 55.717092,9.88324716 55.717092,10.3309824 C55.717092,11.9260393 55.8290259,13.4651293 55.8290259,14.6684178 C55.8290259,17.2988625 55.2413733,18.0264323 54.233969,18.0264323 C53.3664819,18.0264323 52.8907632,17.3828128 51.7994085,18.0544157 C51.2957063,18.3902172 51.2397394,18.9498862 51.7154581,19.3416546 C52.387061,19.8733402 53.5063992,20.4609928 55.157423,20.4609928 C59.7467094,20.4609928 62.1812699,17.0470114 64.224062,13.4371458 C64.6997808,12.5696587 63.4125419,11.6182213 62.9088397,12.4857084 C61.8734519,14.3046329 60.6701634,16.039607 59.4388914,17.1029783 C59.0471231,17.4387797 58.7672885,17.2988625 58.8512389,16.7951603 C58.8792223,16.4593588 58.9072058,16.0955739 58.9072058,15.6758221 C58.8792223,14.1647156 58.4035036,10.3589659 58.9631727,6.77708376 C59.10309,5.88161324 58.8512389,5.46186143 57.9837518,5.15404343 L57.5080331,4.98614271 C56.6685295,4.70630817 56.1928108,4.90219235 55.8010424,5.71371251 C54.7384343,7.95060807 53.2848211,10.7184261 52.2496877,12.4816381 C52.2486701,12.48291 52.2479069,12.4844364 52.2471437,12.4857084 C52.244091,12.4907963 52.2412927,12.4958842 52.2384943,12.5007177 L52.2384943,12.5007177 Z M9.37649224,9.37954498 C9.37649224,10.302999 8.64892244,12.7935264 7.58555119,14.8922854 C7.30571665,15.479938 6.77403102,15.5638883 6.29831231,15.1441365 C5.51477559,14.5005171 4.98308997,13.5210962 4.98308997,12.2058738 C4.98308997,9.37954498 7.16579938,8.0923061 8.11723681,8.0923061 C9.0406908,8.0923061 9.37649224,8.62399173 9.37649224,9.37954498 L9.37649224,9.37954498 Z M3.47198345,15.17212 C3.58391727,14.6964012 3.86375181,14.6684178 4.08761944,15.0881696 C4.42342089,15.6758221 4.8431727,16.1795243 5.34687487,16.5712927 C5.8785605,17.0190279 5.85057704,17.4947466 5.26292451,17.8585315 C4.95510651,18.0544157 4.61930507,18.1663495 4.31148707,18.1663495 C3.10819855,18.1663495 3.10819855,16.6832265 3.47198345,15.17212 L3.47198345,15.17212 Z M25.2431107,16.5153257 C25.2431107,14.1087487 27.8455719,7.50465357 30.2241655,7.50465357 C30.8398014,7.50465357 31.3435036,7.95238883 31.3435036,9.09971044 C31.3435036,9.82728025 31.119636,10.9466184 30.7278676,12.1219235 C30.504,12.7655429 30.3640827,12.9054602 29.7204633,13.0453775 C28.8809597,13.2692451 28.3212906,14.0247983 28.3212906,14.8922854 C28.3212906,15.0881696 28.349274,15.2560703 28.3772575,15.423971 C28.657092,16.4873423 28.4891913,16.9350776 27.6776711,17.6346639 C27.2579193,17.9704654 26.8381675,18.1663495 26.4463992,18.1663495 C25.7188294,18.1663495 25.2431107,17.5507135 25.2431107,16.5153257 L25.2431107,16.5153257 Z M39.626606,16.5433092 C39.626606,14.4725336 41.9492327,8.0923061 44.4677435,8.0923061 C45.111363,8.0923061 45.4471644,8.56802482 45.5870817,9.04374354 C45.726999,9.40752844 45.6990155,10.0791313 45.5590982,10.4429162 L43.8241241,14.7243847 C43.6842068,15.1161531 43.2924385,15.731789 43.0405874,16.039607 C42.4529349,16.7391934 41.5294809,17.6346639 40.55006,17.6346639 C39.934424,17.6346639 39.626606,17.3268459 39.626606,16.5433092 L39.626606,16.5433092 Z M39.6825729,23.2593382 C40.1582916,23.0354705 40.4101427,23.2593382 40.1862751,23.7630403 C39.2908046,25.6659152 38.3673506,26.2535677 37.7517146,26.2815512 C37.2759959,26.2815512 36.9401944,26.0017166 36.9401944,25.5539814 C36.9401944,24.546577 38.395334,23.8190072 39.6825729,23.2593382 L39.6825729,23.2593382 Z" id="path-19"></path>
    </defs>
    <g id="Page-1" stroke="none" stroke-width="1" fill="none" fill-rule="evenodd" sketch:type="MSPage">
        <g id="buzzalinkbar_logo" sketch:type="MSLayerGroup">
            <g id="Group-3">
                <mask id="mask-2" sketch:name="Clip 2" fill="white">
                    <use xlink:href="#path-1"></use>
                </mask>
                <g id="Clip-2"></g>
                <path d="M0.0610548087,0.117021717 L16.9427094,0.117021717 L16.9427094,28.2022337 L0.0610548087,28.2022337 L0.0610548087,0.117021717 Z" id="Fill-1" fill="#090908" sketch:type="MSShapeGroup" mask="url(#mask-2)"></path>
            </g>
            <g id="Group-6" transform="translate(20.351603, 8.140641)">
                <mask id="mask-4" sketch:name="Clip 5" fill="white">
                    <use xlink:href="#path-3"></use>
                </mask>
                <g id="Clip-5"></g>
                <path d="M0.0712306101,0.0661427094 L16.5255016,0.0661427094 L16.5255016,20.0615926 L0.0712306101,20.0615926 L0.0712306101,0.0661427094 Z" id="Fill-4" fill="#090908" sketch:type="MSShapeGroup" mask="url(#mask-4)"></path>
            </g>
            <g id="Group-9" transform="translate(40.448811, 8.140641)">
                <mask id="mask-6" sketch:name="Clip 8" fill="white">
                    <use xlink:href="#path-5"></use>
                </mask>
                <g id="Clip-8"></g>
                <path d="M0.183164426,0.0356153051 L14.7142089,0.0356153051 L14.7142089,19.6342089 L0.183164426,19.6342089 L0.183164426,0.0356153051 Z" id="Fill-7" fill="#090908" sketch:type="MSShapeGroup" mask="url(#mask-6)"></path>
            </g>
            <g id="Group-12" transform="translate(58.256463, 8.140641)">
                <mask id="mask-8" sketch:name="Clip 11" fill="white">
                    <use xlink:href="#path-7"></use>
                </mask>
                <g id="Clip-11"></g>
                <path d="M0.0814064116,0.0356153051 L14.6429783,0.0356153051 L14.6429783,19.6342089 L0.0814064116,19.6342089 L0.0814064116,0.0356153051 Z" id="Fill-10" fill="#090908" sketch:type="MSShapeGroup" mask="url(#mask-8)"></path>
            </g>
            <g id="Group-15" transform="translate(75.809721, 7.631851)">
                <mask id="mask-10" sketch:name="Clip 14" fill="white">
                    <use xlink:href="#path-9"></use>
                </mask>
                <g id="Clip-14"></g>
                <path d="M0.0814064116,0.117021717 L17.5430817,0.117021717 L17.5430817,20.5703826 L0.0814064116,20.5703826 L0.0814064116,0.117021717 Z" id="Fill-13" fill="#090908" sketch:type="MSShapeGroup" mask="url(#mask-10)"></path>
            </g>
            <g id="Group-18" transform="translate(96.670114, 7.631851)">
                <mask id="mask-12" sketch:name="Clip 17" fill="white">
                    <use xlink:href="#path-11"></use>
                </mask>
                <g id="Clip-17"></g>
                <path d="M0.0407032058,0.117021717 L16.556029,0.117021717 L16.556029,20.142999 L0.0407032058,20.142999 L0.0407032058,0.117021717 Z" id="Fill-16" fill="#090908" sketch:type="MSShapeGroup" mask="url(#mask-12)"></path>
            </g>
            <g id="Group-21" transform="translate(135.592554, 8.140641)">
                <mask id="mask-14" sketch:name="Clip 20" fill="white">
                    <use xlink:href="#path-13"></use>
                </mask>
                <g id="Clip-20"></g>
                <path d="M0.0101758014,0.0661427094 L17.9297622,0.0661427094 L17.9297622,19.6342089 L0.0101758014,19.6342089 L0.0101758014,0.0661427094 Z" id="Fill-19" fill="#090908" sketch:type="MSShapeGroup" mask="url(#mask-14)"></path>
            </g>
            <g id="Group-24" transform="translate(154.926577, 7.631851)">
                <mask id="mask-16" sketch:name="Clip 23" fill="white">
                    <use xlink:href="#path-15"></use>
                </mask>
                <g id="Clip-23"></g>
                <path d="M0.183164426,0.117021717 L17.6753671,0.117021717 L17.6753671,20.5703826 L0.183164426,20.5703826 L0.183164426,0.117021717 Z" id="Fill-22" fill="#090908" sketch:type="MSShapeGroup" mask="url(#mask-16)"></path>
            </g>
            <path d="M131.341613,24.5308046 C131.341613,25.2853402 131.055419,25.8999586 130.700283,25.8999586 L119.110554,25.8999586 C118.754656,25.8999586 118.469224,25.2853402 118.469224,24.5308046 L118.469224,11.4101262 C118.469224,10.65788 118.754656,10.0450424 119.110554,10.0450424 L130.700283,10.0450424 C131.055419,10.0450424 131.341613,10.65788 131.341613,11.4101262 L131.341613,24.5308046 L131.341613,24.5308046 Z" id="Stroke-25" stroke="#090908" stroke-width="4" sketch:type="MSShapeGroup"></path>
            <g id="Group-29" transform="translate(123.635988, 15.772492)">
                <mask id="mask-18" sketch:name="Clip 28" fill="white">
                    <use xlink:href="#path-17"></use>
                </mask>
                <g id="Clip-28"></g>
                <path d="M0.183164426,0.00508790072 L2.93063082,0.00508790072 L2.93063082,4.03470527 L0.183164426,4.03470527 L0.183164426,0.00508790072 Z" id="Fill-27" fill="#F26924" sketch:type="MSShapeGroup" mask="url(#mask-18)"></path>
            </g>
            <g id="Group-32" transform="translate(181.638056, 8.140641)">
                <mask id="mask-20" sketch:name="Clip 31" fill="white">
                    <use xlink:href="#path-19"></use>
                </mask>
                <g id="Clip-31"></g>
                <path d="M0.152637022,0.00508790072 L64.3517684,0.00508790072 L64.3517684,28.548211 L0.152637022,28.548211 L0.152637022,0.00508790072 Z" id="Fill-30" fill="#000000" sketch:type="MSShapeGroup" mask="url(#mask-20)"></path>
            </g>
        </g>
    </g>
</svg>