<?xml version="1.0" encoding="UTF-8" standalone="no"?>
<svg width="171px" height="28px" viewBox="0 0 171 28" version="1.1" xmlns="http://www.w3.org/2000/svg" xmlns:xlink="http://www.w3.org/1999/xlink" xmlns:sketch="http://www.bohemiancoding.com/sketch/ns">
    <!-- Generator: Sketch 3.3.1 (12005) - http://www.bohemiancoding.com/sketch -->
    <title>logo_white</title>
    <desc>Created with Sketch.</desc>
    <defs></defs>
    <g id="Page-1" stroke="none" stroke-width="1" fill="none" fill-rule="evenodd" sketch:type="MSPage">
        <g id="logo_white" sketch:type="MSLayerGroup" transform="translate(0.500000, 0.000000)">
            <path d="M16.6482327,17.4561708 C16.6482327,25.4674521 14.1067452,27.7405449 7.25191458,27.7405449 C5.24921944,27.7405449 0.0883799705,27.2393078 0.0883799705,27.2393078 L0.0883799705,0.125684831 L4.47858616,0.125684831 L4.47858616,8.6755081 C4.47858616,8.6755081 7.09818851,7.63572901 9.13843888,7.63572901 C14.3761414,7.63572901 16.6482327,10.2540795 16.6482327,17.4561708 L16.6482327,17.4561708 Z M12.1809131,17.4561708 C12.1809131,13.2196907 11.0267158,11.7182327 8.56108984,11.7182327 C6.86709867,11.7182327 4.47858616,12.257025 4.47858616,12.257025 L4.47858616,23.5811782 C4.47858616,23.5811782 6.48153166,23.7724595 7.21235641,23.7724595 C11.3344183,23.7724595 12.1809131,22.0026068 12.1809131,17.4561708 L12.1809131,17.4561708 Z" id="Fill-1" fill="#FFFFFF" sketch:type="MSShapeGroup"></path>
            <path d="M36.2653314,8.09740795 L36.2653314,27.3164212 L31.8738733,27.3164212 L31.8738733,26.3532548 C31.8738733,26.3532548 28.8697054,27.7405449 26.7911487,27.7405449 C21.2444919,27.7405449 20.1275994,24.8891016 20.1275994,18.1509426 L20.1275994,8.09740795 L24.5178056,8.09740795 L24.5178056,18.1113844 C24.5178056,22.1938881 24.7488954,23.7724595 27.6769514,23.7724595 C29.3709426,23.7724595 31.8738733,22.8864065 31.8738733,22.8864065 L31.8738733,8.09740795 L36.2653314,8.09740795" id="Fill-2" fill="#FFFFFF" sketch:type="MSShapeGroup"></path>
            <path d="M39.9913108,8.05985272 L54.2788218,8.05985272 L54.2788218,12.0259352 L45.3048748,23.3480854 L54.2788218,23.3480854 L54.2788218,27.3164212 L39.9913108,27.3164212 L39.9913108,23.3480854 L49.0025626,12.0259352 L39.9913108,12.0259352 L39.9913108,8.05985272" id="Fill-3" fill="#FFFFFF" sketch:type="MSShapeGroup"></path>
            <path d="M57.4422239,8.05985272 L71.7299853,8.05985272 L71.7299853,12.0259352 L62.7570398,23.3480854 L71.7299853,23.3480854 L71.7299853,27.3164212 L57.4422239,27.3164212 L57.4422239,23.3480854 L66.4537261,12.0259352 L57.4422239,12.0259352 L57.4422239,8.05985272" id="Fill-4" fill="#FFFFFF" sketch:type="MSShapeGroup"></path>
            <path d="M90.291782,22.0774669 C90.3300884,23.4251988 90.7532106,23.8097644 91.8701031,24.003299 L91.7161267,27.7405449 C88.7129602,27.7405449 87.710486,27.2766127 86.5542857,26.39081 C86.5542857,26.39081 83.2434168,27.7405449 80.2778056,27.7405449 C76.6194256,27.7405449 74.6935935,25.3903387 74.6935935,21.5782327 C74.6935935,17.4561708 76.9656848,16.0315758 81.1250515,15.7238733 L85.900324,15.3390574 L85.900324,14.1828571 C85.900324,12.6811487 84.9757143,11.8722091 83.5138144,11.8722091 C80.6633726,11.8722091 76.0806333,12.2194698 76.0806333,12.2194698 L75.9269072,8.4842268 C75.9269072,8.4842268 80.8932106,7.63572901 83.7434021,7.63572901 C87.9808837,7.63572901 90.291782,9.40758468 90.291782,14.1453019 L90.291782,22.0774669 L90.291782,22.0774669 Z M81.6648454,18.997187 C80.0084094,19.1511635 79.1223564,19.8832401 79.1223564,21.4618115 C79.1223564,23.0799411 79.8158763,23.9657437 81.0867452,23.9657437 C83.1279971,23.9657437 85.900324,23.1943594 85.900324,23.1943594 L85.900324,18.7665979 L81.6648454,18.997187 L81.6648454,18.997187 Z" id="Fill-5" fill="#FFFFFF" sketch:type="MSShapeGroup"></path>
            <path d="M95.1799705,27.3164212 L95.1799705,8.09740795 L99.5701767,8.09740795 L99.5701767,9.06232695 C99.5701767,9.06232695 102.613152,7.63572901 104.730265,7.63572901 C110.084389,7.63572901 111.432121,10.7948748 111.432121,17.2648895 L111.432121,27.3164212 L107.041664,27.3164212 L107.041664,17.3021944 C107.041664,13.6440648 106.579234,11.7557879 103.88377,11.7557879 C102.189779,11.7557879 99.5701767,12.6415906 99.5701767,12.6415906 L99.5701767,27.3164212 L95.1799705,27.3164212" id="Fill-6" fill="#FFFFFF" sketch:type="MSShapeGroup"></path>
            <path d="M138.063034,8.09740795 L141.722415,23.6557879 L142.876613,23.6557879 L146.614109,8.09740795 L151.080177,8.09740795 L146.151178,27.3164212 L138.370987,27.3164212 L133.480545,8.09740795 L138.063034,8.09740795" id="Fill-7" fill="#FFFFFF" sketch:type="MSShapeGroup"></path>
            <path d="M168.26595,22.0774669 C168.303505,23.4251988 168.728881,23.8097644 169.844521,24.003299 L169.690795,27.7405449 C166.686627,27.7405449 165.686156,27.2766127 164.529705,26.39081 C164.529705,26.39081 161.217835,27.7405449 158.253225,27.7405449 C154.593844,27.7405449 152.668012,25.3903387 152.668012,21.5782327 C152.668012,17.4561708 154.940353,16.0315758 159.09972,15.7238733 L163.874742,15.3390574 L163.874742,14.1828571 C163.874742,12.6811487 162.951384,11.8722091 161.488233,11.8722091 C158.636789,11.8722091 154.0543,12.2194698 154.0543,12.2194698 L153.900324,8.4842268 C153.900324,8.4842268 158.868881,7.63572901 161.719072,7.63572901 C165.954551,7.63572901 168.26595,9.40758468 168.26595,14.1453019 L168.26595,22.0774669 L168.26595,22.0774669 Z M159.639264,18.997187 C157.982828,19.1511635 157.096775,19.8832401 157.096775,21.4618115 C157.096775,23.0799411 157.790295,23.9657437 159.061163,23.9657437 C161.102415,23.9657437 163.874742,23.1943594 163.874742,23.1943594 L163.874742,18.7665979 L159.639264,18.997187 L159.639264,18.997187 Z" id="Fill-8" fill="#FFFFFF" sketch:type="MSShapeGroup"></path>
            <path d="M127.259647,24.1425037 C127.259647,24.1957045 127.255132,24.2428848 127.248221,24.2778331 C127.24673,24.2853746 127.249326,24.277152 127.26357,24.2466791 C127.311719,24.1436728 127.393287,24.0258012 127.533962,23.8985723 C127.804533,23.6538615 128.185406,23.4872901 128.631414,23.4872901 L117.22514,23.4872901 C117.670514,23.4872901 118.051312,23.6536213 118.321931,23.898261 C118.462936,24.0257299 118.54471,24.143925 118.592969,24.247252 C118.607253,24.2778356 118.609858,24.2860938 118.608363,24.2785217 C118.601434,24.2434167 118.596907,24.196001 118.596907,24.1425037 L118.596907,11.229514 C118.596907,11.1769658 118.601358,11.1304947 118.608131,11.096284 C118.609453,11.0896109 118.606577,11.0986999 118.591924,11.1299742 C118.543259,11.2338351 118.460975,11.3523822 118.319514,11.4798464 C118.049052,11.7235463 117.66905,11.8889838 117.22514,11.8889838 L128.631414,11.8889838 C128.186871,11.8889838 127.806793,11.7233066 127.536379,11.4795357 C127.395248,11.352311 127.313171,11.2340876 127.264617,11.1305479 C127.250004,11.0993848 127.247136,11.0903318 127.248454,11.0969745 C127.255208,11.1310279 127.259647,11.1772629 127.259647,11.229514 L127.259647,24.1425037 L127.259647,24.1425037 Z M131.265538,24.1425037 L131.265538,11.229514 C131.265538,10.5891107 131.141165,9.96210403 130.891524,9.42975034 C130.479596,8.55132518 129.738327,7.88309278 128.631414,7.88309278 L117.22514,7.88309278 C116.118085,7.88309278 115.37624,8.5515328 114.964479,9.43032406 C114.715104,9.96254816 114.591016,10.5892748 114.591016,11.229514 L114.591016,24.1425037 C114.591016,24.78303 114.714765,25.41001 114.963434,25.9424313 C115.374704,26.8229994 116.116055,27.4931811 117.22514,27.4931811 L128.631414,27.4931811 C129.740357,27.4931811 130.481132,26.8232087 130.892571,25.9430042 C131.141505,25.4104525 131.265538,24.7831927 131.265538,24.1425037 L131.265538,24.1425037 Z" id="Shape" fill="#FFFFFF" sketch:type="MSShapeGroup"></path>
            <path d="M121.88299,15.5571281 L124.537644,17.476701 L121.88299,19.4791458 L121.88299,15.5571281" id="Fill-11" fill="#D48E30" sketch:type="MSShapeGroup"></path>
        </g>
    </g>
</svg>